<svg xmlns="http://www.w3.org/2000/svg" viewBox="0 0 36.86 212.81"><defs><style>.a,.b{stroke:#000;stroke-miterlimit:10;}.b{fill:#d51f26;}.c{fill:#fff;}.d{fill:#e2c1cb;}.e{fill:#dc97ac;}.f{fill:#d66a8b;}.g{fill:#e6d1d7;}</style></defs><title>Harpoon Key - PressedAsset 10</title><path class="a" d="M.68.5V80.11s14.26,17,14.26,33.5c0,18.56-14.26,5.9-14.26,5.9s6.6,47.2,34.78,68.87V.5Z"/><path class="b" d="M26,124.74c-9.28-2-4.38,11.13-8.77,14.45s-7.31-4.3-13.45-7.33a.87.87,0,0,0-1.2,1c1.66,6.27-.64,20,2.58,24.33s3.66-4.94,4.77-2.41c2.14,4.85,4,13,6.45,16.94,1.39,2.18,3.3.42,4.77,2.35,3,4,4.3,5,8.26,9.11,7.86,5.19-5.85,24.31,5.17,29.05,2.91,1.25,1.26-15.21,1.45-23.86V114.93c0-.8-.67-.5-1.47-.44A3.77,3.77,0,0,0,31,117C28.62,122.57,31.64,126,26,124.74Z"/><path class="c" d="M31.67,201.28c.07,4.11,3.35,9.4,1.28,7.9C30.19,207.18,31.67,201.28,31.67,201.28Z"/><path class="d" d="M4.86,146.49c.31,3.67,3.2,9.7,1.84,9.7C4.37,156.19,4.86,146.49,4.86,146.49Z"/><path class="e" d="M21.23,132.77c-.31-5.11,1.35-7.19,3.21-6.58C25.22,126.45,22.45,127.76,21.23,132.77Z"/><path class="f" d="M30.94,123.72c-.31-5.11,1.53-8.61,4-8.26C35.81,115.58,32.09,117.05,30.94,123.72Z"/><path class="g" d="M12.44,156.52c.81,5.09,3.8,12.2,5,13.83s1.69.31,3.51,1.47c1.5,1,5.11,6.68,9.25,9.91-7.44-9-7.11-11.52-9.52-12-1.45-.29-1.26.32-2.66-1.76C17.38,166.93,13.05,158.08,12.44,156.52Z"/></svg>