<svg xmlns="http://www.w3.org/2000/svg" viewBox="0 0 64.73 302.33"><defs><style>.a,.e{fill:#40b9eb;}.a,.c,.d{stroke:#000;stroke-miterlimit:10;}.b,.c{fill:#fff;}</style></defs><title>Sharky KeyAsset 5</title><path class="a" d="M64.23,260.16c-16.54,41.67-31.87,41.67-31.87,41.67S17,301.83.5,260.16V.5H64.23Z"/><path class="b" d="M55.5,254.72c-11.84,41.66-22.82,41.66-22.82,41.66s-11,0-22.82-41.66V1H55.5Z"/><path class="c" d="M12.77,272.62c2.36,4.73,2.93,9.14,1.18,10-3.18,1.57-8.95-.41-11.31-5.13s-.48-10.55,2.76-12C7.16,264.73,10.41,267.9,12.77,272.62Z"/><ellipse class="d" cx="4.56" cy="274.83" rx="1.14" ry="1.57" transform="matrix(0.98, -0.19, 0.19, 0.98, -52.77, 6.01)"/><path class="c" d="M52,272.62c-2.36,4.73-2.93,9.14-1.18,10,3.18,1.57,8.95-.41,11.31-5.13s.48-10.55-2.77-12C57.57,264.73,54.32,267.9,52,272.62Z"/><ellipse class="d" cx="59.63" cy="275.72" rx="1.3" ry="0.86" transform="translate(-220.21 240.16) rotate(-70.55)"/><path d="M43.52,272.05c-2.29,4.07-4.78-3.38-10.74-3-6.19.38-10,5.77-11.77,3-2.72-4.39,4.35-11.65,12.17-11.32C39.41,261,46.27,267.17,43.52,272.05Z"/><path class="b" d="M40.94,272.23c1.28-3.18.39-6.23-4-2.9A30.37,30.37,0,0,1,40.94,272.23Z"/><path class="b" d="M38.19,262.67c-1.28,3.28.38,5.52,3.89,3.09A8.46,8.46,0,0,0,38.19,262.67Z"/><path class="b" d="M33.61,261.21c-.15,3.75,2,4.46,4.58,1.46A13.34,13.34,0,0,0,33.61,261.21Z"/><path class="b" d="M27.72,262.35c1.82,3.79,4.74,3,5.73-1.12A13.74,13.74,0,0,0,27.72,262.35Z"/><path class="b" d="M23,265.27c2.26,1.64,4.92,2.14,4.45-2.93A11.3,11.3,0,0,0,23,265.27Z"/><path class="b" d="M26.81,270.14c-2.26-2.4-5.07-1.48-4.67,2.06A24.82,24.82,0,0,0,26.81,270.14Z"/><path class="b" d="M37,269.21c.51-4.3-2.89-5.52-5-.92A8.94,8.94,0,0,1,37,269.21Z"/><path class="b" d="M31.78,268.3c-1.86-4.42-5.59-2.94-5.05,1.88A11.14,11.14,0,0,1,31.78,268.3Z"/><path d="M32.67,260.68v.75h.48a12.19,12.19,0,0,1,9.5,5.65,4.58,4.58,0,0,1,.22,4.59c-.31.56-.61.84-.89.84a5.33,5.33,0,0,1-2.17-1.32c-1.56-1.24-3.69-2.93-6.61-2.93h-.47a18,18,0,0,0-7.52,2.58,8.2,8.2,0,0,1-2.88,1.2.75.75,0,0,1-.69-.45c-1-1.56-.24-3.34.27-4.26a12.82,12.82,0,0,1,10.76-5.92v-.75m0,0c-7.61,0-14.32,7-11.66,11.33a1.47,1.47,0,0,0,1.32.8c2.08,0,5.52-3.48,10.45-3.78h.42c4.41,0,6.86,4.25,8.78,4.25.55,0,1.05-.34,1.54-1.22,2.75-4.88-4.11-11.1-10.34-11.36Z"/><path d="M42.35,276.21a12.38,12.38,0,0,0,2.13-.75,5,5,0,0,0,1.67-1.23,9.77,9.77,0,0,0,1.93-3.91,5.09,5.09,0,0,1,0,2.39,5,5,0,0,1-1.16,2.19,4.22,4.22,0,0,1-2.13,1.29A4.65,4.65,0,0,1,42.35,276.21Z"/><path d="M3.36,253.5A8.11,8.11,0,0,1,6,253.05a9.09,9.09,0,0,1,2.73.38,8.47,8.47,0,0,1,2.48,1.19,6.23,6.23,0,0,1,1.91,1.95,18.75,18.75,0,0,0-2.3-1.28,15.92,15.92,0,0,0-2.38-.9,17.41,17.41,0,0,0-2.5-.56C5.13,253.68,4.26,253.62,3.36,253.5Z"/><path d="M3.71,250a7.12,7.12,0,0,1,2.46-.61,7.84,7.84,0,0,1,2.55.2,7.56,7.56,0,0,1,2.36,1,5.4,5.4,0,0,1,1.78,1.81,16.55,16.55,0,0,0-2.16-1.13,14.87,14.87,0,0,0-2.22-.75,16.3,16.3,0,0,0-2.32-.4C5.36,250.07,4.56,250.06,3.71,250Z"/><path d="M4.67,246.55a5.35,5.35,0,0,1,2-.76,5.76,5.76,0,0,1,2.19,0,5.41,5.41,0,0,1,2,.9,4.07,4.07,0,0,1,1.39,1.64,11.93,11.93,0,0,0-1.78-1,8.71,8.71,0,0,0-1.83-.6,11,11,0,0,0-1.91-.24C6.07,246.52,5.4,246.57,4.67,246.55Z"/><path d="M61.7,253.5c-.9.12-1.77.18-2.62.33a17.11,17.11,0,0,0-2.5.56,15.92,15.92,0,0,0-2.38.9,18.75,18.75,0,0,0-2.3,1.28,6.23,6.23,0,0,1,1.91-1.95,8.47,8.47,0,0,1,2.48-1.19,9.05,9.05,0,0,1,2.73-.38A8.15,8.15,0,0,1,61.7,253.5Z"/><path d="M61.35,250c-.85.06-1.65.07-2.45.16a16.3,16.3,0,0,0-2.32.4,14.87,14.87,0,0,0-2.22.75,16.55,16.55,0,0,0-2.16,1.13A5.4,5.4,0,0,1,54,250.63a7.56,7.56,0,0,1,2.36-1,7.84,7.84,0,0,1,2.55-.2A7.18,7.18,0,0,1,61.35,250Z"/><path d="M60.38,246.55c-.72,0-1.39,0-2.05,0a11.08,11.08,0,0,0-1.92.24,8.82,8.82,0,0,0-1.82.6,12,12,0,0,0-1.79,1,4.1,4.1,0,0,1,1.4-1.64,5.41,5.41,0,0,1,2-.9,5.76,5.76,0,0,1,2.19,0A5.24,5.24,0,0,1,60.38,246.55Z"/><path class="e" d="M8.46,235.86C31.78,198.68,25.26,163,25.26,163s-6.63,16.73-16,15.37C-5.71,176.18,8.46,235.86,8.46,235.86Z"/><path class="e" d="M56.82,235.86C33.51,198.68,40,163,40,163s6.63,16.73,16,15.37C71,176.18,56.82,235.86,56.82,235.86Z"/></svg>