<svg xmlns="http://www.w3.org/2000/svg" viewBox="0 0 64.73 302.33"><defs><style>.a,.f{fill:#40b9eb;}.a,.c{stroke:#000;stroke-miterlimit:10;}.b,.c{fill:#fff;}.d{fill:#e1708f;}.e{fill:#9f4359;}</style></defs><title>Sharky Key - PressedAsset 6</title><path class="a" d="M64.23,260.16c-16.54,41.67-31.87,41.67-31.87,41.67S17,301.83.5,260.16V.5H64.23Z"/><path class="b" d="M55.5,254.72c-11.84,41.66-22.82,41.66-22.82,41.66s-11,0-22.82-41.66V1H55.5Z"/><path class="c" d="M12.77,272.62c2.36,4.73,2.93,9.14,1.18,10-3.18,1.57-8.95-.41-11.31-5.13s-.48-10.55,2.76-12C7.16,264.73,10.41,267.9,12.77,272.62Z"/><path d="M8.53,263.66A10.21,10.21,0,0,1,11.59,267a21.14,21.14,0,0,1,2,4.06,30.53,30.53,0,0,1,1.91,8.74l-1.39-4.23c-.46-1.4-.93-2.79-1.45-4.16a37.82,37.82,0,0,0-1.72-4A15.92,15.92,0,0,0,8.53,263.66Z"/><path d="M1.34,272.09a28.28,28.28,0,0,0,2.38,2.39c.85.69,1.72,1.35,2.63,2,1.83,1.22,3.77,2.26,5.79,3.46a10.71,10.71,0,0,1-3.45-.65,14.15,14.15,0,0,1-3.17-1.56,11.86,11.86,0,0,1-2.64-2.41A7.82,7.82,0,0,1,1.34,272.09Z"/><path d="M6.28,281.64a5.21,5.21,0,0,1-1.77-3,7.6,7.6,0,0,1,.11-3.58,10.33,10.33,0,0,1,1.43-3.19,10.77,10.77,0,0,1,2.31-2.55c-.41,1.09-.87,2.09-1.27,3.1a25.41,25.41,0,0,0-1,3,11.79,11.79,0,0,0-.4,3.06A9.92,9.92,0,0,0,6.28,281.64Z"/><path class="c" d="M52,272.62c-2.36,4.73-2.93,9.14-1.18,10,3.18,1.57,8.95-.41,11.31-5.13s.48-10.55-2.77-12C57.57,264.73,54.32,267.9,52,272.62Z"/><path d="M56.4,263.54A16.3,16.3,0,0,0,54,267.23a37.76,37.76,0,0,0-1.71,4c-.52,1.37-1,2.76-1.45,4.16l-1.39,4.23a30.53,30.53,0,0,1,1.91-8.74,21.51,21.51,0,0,1,2-4.07A10.28,10.28,0,0,1,56.4,263.54Z"/><path d="M63.61,272.09a7.82,7.82,0,0,1-1.54,3.19,11.86,11.86,0,0,1-2.64,2.41,14.15,14.15,0,0,1-3.17,1.56,10.71,10.71,0,0,1-3.46.65c2-1.2,4-2.24,5.8-3.46.91-.61,1.78-1.27,2.63-2A28.28,28.28,0,0,0,63.61,272.09Z"/><path d="M58.67,281.64a9.92,9.92,0,0,0,.61-3.14,11.79,11.79,0,0,0-.4-3.06,25.41,25.41,0,0,0-1-3c-.4-1-.86-2-1.27-3.1a11,11,0,0,1,2.31,2.55,10.33,10.33,0,0,1,1.43,3.19,7.6,7.6,0,0,1,.11,3.58A5.21,5.21,0,0,1,58.67,281.64Z"/><path d="M22.3,264.51c2.37-4,4.71,3.47,10.69,3.22,6.19-.26,10.15-5.57,11.82-2.75,2.63,4.44-4.57,11.56-12.38,11.09C26.2,275.69,19.46,269.34,22.3,264.51Z"/><path class="b" d="M27.45,274c1.35-3.25-.27-5.53-3.83-3.17A8.46,8.46,0,0,0,27.45,274Z"/><path class="b" d="M32,275.53c.22-3.74-1.91-4.49-4.56-1.54A13.36,13.36,0,0,0,32,275.53Z"/><path class="b" d="M37.92,274.51c-1.75-3.82-4.69-3.13-5.75,1A13.78,13.78,0,0,0,37.92,274.51Z"/><path class="b" d="M42.68,271.68c-2.22-1.68-4.88-2.23-4.5,2.84A11.27,11.27,0,0,0,42.68,271.68Z"/><path d="M23.84,264.07c.51,0,1.31.66,2.16,1.36,1.56,1.29,3.7,3.06,6.7,3.06H33A17.89,17.89,0,0,0,40.59,266a8.34,8.34,0,0,1,2.88-1.13.74.74,0,0,1,.7.45,4.13,4.13,0,0,1-.31,4.2,12.8,12.8,0,0,1-10.68,5.78l-.71,0a12.24,12.24,0,0,1-9.39-5.84,4.58,4.58,0,0,1-.13-4.59c.32-.54.62-.82.89-.82m0-.75c-.53,0-1,.34-1.54,1.19-2.84,4.83,3.9,11.18,10.13,11.56l.75,0c7.51,0,14.18-6.81,11.63-11.11a1.47,1.47,0,0,0-1.34-.82c-2.08,0-5.58,3.37-10.48,3.57H32.7c-4.52,0-6.91-4.42-8.86-4.42Z"/><path d="M23.55,260.37a12.79,12.79,0,0,0-2.14.71,5.1,5.1,0,0,0-1.69,1.2,9.63,9.63,0,0,0-2,3.87,5,5,0,0,1,.08-2.39,5.12,5.12,0,0,1,1.2-2.17,4.32,4.32,0,0,1,2.15-1.25A4.75,4.75,0,0,1,23.55,260.37Z"/><path class="d" d="M38.34,267.63c1.68-2.45-.18-12.85-5.13-12.94a4.91,4.91,0,0,0-4.63,3.41c-.67,1.66-2.23,7.9-1.41,9.31C29,270.57,35.91,271.18,38.34,267.63Z"/><polygon class="e" points="32.37 270.04 33.09 258.3 33.37 270.06 32.37 270.04"/><path d="M3.36,253.5A8.11,8.11,0,0,1,6,253.05a9.09,9.09,0,0,1,2.73.38,8.47,8.47,0,0,1,2.48,1.19,6.23,6.23,0,0,1,1.91,1.95,18.75,18.75,0,0,0-2.3-1.28,15.92,15.92,0,0,0-2.38-.9,17.41,17.41,0,0,0-2.5-.56C5.13,253.68,4.26,253.62,3.36,253.5Z"/><path d="M3.71,250a7.12,7.12,0,0,1,2.46-.61,7.84,7.84,0,0,1,2.55.2,7.56,7.56,0,0,1,2.36,1,5.4,5.4,0,0,1,1.78,1.81,16.55,16.55,0,0,0-2.16-1.13,14.87,14.87,0,0,0-2.22-.75,16.3,16.3,0,0,0-2.32-.4C5.36,250.07,4.56,250.06,3.71,250Z"/><path d="M4.67,246.55a5.35,5.35,0,0,1,2-.76,5.76,5.76,0,0,1,2.19,0,5.41,5.41,0,0,1,2,.9,4.07,4.07,0,0,1,1.39,1.64,11.93,11.93,0,0,0-1.78-1,8.71,8.71,0,0,0-1.83-.6,11,11,0,0,0-1.91-.24C6.07,246.52,5.4,246.57,4.67,246.55Z"/><path d="M61.7,253.5c-.9.12-1.77.18-2.62.33a17.11,17.11,0,0,0-2.5.56,15.92,15.92,0,0,0-2.38.9,18.75,18.75,0,0,0-2.3,1.28,6.23,6.23,0,0,1,1.91-1.95,8.47,8.47,0,0,1,2.48-1.19,9.05,9.05,0,0,1,2.73-.38A8.15,8.15,0,0,1,61.7,253.5Z"/><path d="M61.35,250c-.85.06-1.65.07-2.45.16a16.3,16.3,0,0,0-2.32.4,14.87,14.87,0,0,0-2.22.75,16.55,16.55,0,0,0-2.16,1.13A5.4,5.4,0,0,1,54,250.63a7.56,7.56,0,0,1,2.36-1,7.84,7.84,0,0,1,2.55-.2A7.18,7.18,0,0,1,61.35,250Z"/><path d="M60.38,246.55c-.72,0-1.39,0-2.05,0a11.08,11.08,0,0,0-1.92.24,8.82,8.82,0,0,0-1.82.6,12,12,0,0,0-1.79,1,4.1,4.1,0,0,1,1.4-1.64,5.41,5.41,0,0,1,2-.9,5.76,5.76,0,0,1,2.19,0A5.24,5.24,0,0,1,60.38,246.55Z"/><path class="f" d="M8.46,235.86C31.78,198.68,25.26,163,25.26,163s-6.63,16.73-16,15.37C-5.71,176.18,8.46,235.86,8.46,235.86Z"/><path class="f" d="M56.82,235.86C33.51,198.68,40,163,40,163s6.63,16.73,16,15.37C71,176.18,56.82,235.86,56.82,235.86Z"/></svg>